<?xml version="1.0" encoding="UTF-8" standalone="no"?>
<svg
   xmlns:dc="http://purl.org/dc/elements/1.1/"
   xmlns:cc="http://creativecommons.org/ns#"
   xmlns:rdf="http://www.w3.org/1999/02/22-rdf-syntax-ns#"
   xmlns:svg="http://www.w3.org/2000/svg"
   xmlns="http://www.w3.org/2000/svg"
   xmlns:sodipodi="http://sodipodi.sourceforge.net/DTD/sodipodi-0.dtd"
   xmlns:inkscape="http://www.inkscape.org/namespaces/inkscape"
   viewBox="0 0 500 500"
   xml:space="preserve"
   version="1.1"
   id="svg2"
   inkscape:version="0.91 r13725"
   sodipodi:docname="lose.svg"
   width="500"
   height="500"><sodipodi:namedview
     pagecolor="#ffffff"
     bordercolor="#666666"
     borderopacity="1"
     objecttolerance="10"
     gridtolerance="10"
     guidetolerance="10"
     inkscape:pageopacity="0"
     inkscape:pageshadow="2"
     inkscape:window-width="1366"
     inkscape:window-height="721"
     id="namedview18"
     showgrid="false"
     inkscape:zoom="0.46354778"
     inkscape:cx="22.5"
     inkscape:cy="68.262712"
     inkscape:window-x="0"
     inkscape:window-y="23"
     inkscape:window-maximized="1"
     inkscape:current-layer="svg2" /><metadata
     id="metadata8"><rdf:RDF><cc:Work
         rdf:about=""><dc:format>image/svg+xml</dc:format><dc:type
           rdf:resource="http://purl.org/dc/dcmitype/StillImage" /><dc:title></dc:title></cc:Work></rdf:RDF></metadata><defs
     id="defs6"><clipPath
       id="clipPath16"
       clipPathUnits="userSpaceOnUse"><path
         id="path18"
         d="M 0,36 36,36 36,0 0,0 0,36 Z"
         inkscape:connector-curvature="0" /></clipPath></defs><g
     transform="matrix(13.834104,0,0,-13.834104,0,500)"
     id="g10"><g
       id="g12"><g
         clip-path="url(#clipPath16)"
         id="g14"><g
           transform="translate(36,18)"
           id="g20"><path
             id="path22"
             style="fill:#ffcc4d;fill-opacity:1;fill-rule:nonzero;stroke:none"
             d="m 0,0 c 0,-9.941 -8.059,-18 -18,-18 -9.941,0 -18,8.059 -18,18 0,9.941 8.059,18 18,18 C -8.059,18 0,9.941 0,0"
             inkscape:connector-curvature="0" /></g><g
           transform="translate(25.4854,8.6211)"
           id="g24"><path
             id="path26"
             style="fill:#664500;fill-opacity:1;fill-rule:nonzero;stroke:none"
             d="m 0,0 c -0.045,0.179 -1.168,4.379 -7.485,4.379 -6.318,0 -7.441,-4.2 -7.485,-4.379 -0.055,-0.217 0.043,-0.442 0.237,-0.554 0.195,-0.111 0.439,-0.078 0.599,0.077 0.019,0.019 1.954,1.856 6.649,1.856 4.694,0 6.63,-1.837 6.648,-1.856 0.096,-0.094 0.224,-0.144 0.352,-0.144 0.084,0 0.169,0.021 0.246,0.064 C -0.043,-0.445 0.055,-0.218 0,0"
             inkscape:connector-curvature="0" /></g><g
           transform="translate(14.5,22.5)"
           id="g28"><path
             id="path30"
             style="fill:#664500;fill-opacity:1;fill-rule:nonzero;stroke:none"
             d="M 0,0 C 0,-1.934 -1.119,-3.5 -2.5,-3.5 -3.881,-3.5 -5,-1.934 -5,0 -5,1.933 -3.881,3.5 -2.5,3.5 -1.119,3.5 0,1.933 0,0"
             inkscape:connector-curvature="0" /></g><g
           transform="translate(26.5,22.5)"
           id="g32"><path
             id="path34"
             style="fill:#664500;fill-opacity:1;fill-rule:nonzero;stroke:none"
             d="M 0,0 C 0,-1.934 -1.119,-3.5 -2.5,-3.5 -3.881,-3.5 -5,-1.934 -5,0 -5,1.933 -3.881,3.5 -2.5,3.5 -1.119,3.5 0,1.933 0,0"
             inkscape:connector-curvature="0" /></g></g></g></g></svg>